HIERARCHY
ROOT root
{
	OFFSET 0.000000 0.000000 0.000000
	CHANNELS 6 Xposition Yposition Zposition Zrotation Yrotation Xrotation
	JOINT lhip
	{
		OFFSET 0.058581 -0.082280 -0.017664
		CHANNELS 3 Zrotation Yrotation Xrotation
		JOINT lknee
		{
			OFFSET 0.043451 -0.386469 0.008037
			CHANNELS 3 Zrotation Yrotation Xrotation
			JOINT lankle
			{
				OFFSET -0.014790 -0.426874 -0.037428
				CHANNELS 3 Zrotation Yrotation Xrotation
				JOINT ltoe
				{
					OFFSET 0.041054 -0.060286 0.122042
					CHANNELS 3 Zrotation Yrotation Xrotation
					End Site
					{
						OFFSET 0.000000 0.000000 0.000000
					}
				}
			}
		}
	}
	JOINT rhip
	{
		OFFSET -0.060310 -0.090513 -0.013543
		CHANNELS 3 Zrotation Yrotation Xrotation
		JOINT rknee
		{
			OFFSET -0.043257 -0.383688 -0.004843
			CHANNELS 3 Zrotation Yrotation Xrotation
			JOINT rankle
			{
				OFFSET 0.019056 -0.420046 -0.034562
				CHANNELS 3 Zrotation Yrotation Xrotation
				JOINT rtoe
				{
					OFFSET -0.034840 -0.062106 0.130323
					CHANNELS 3 Zrotation Yrotation Xrotation
					End Site
					{
						OFFSET 0.000000 0.000000 0.000000
					}
				}
			}
		}
	}
	JOINT lowerback
	{
		OFFSET 0.004439 0.124404 -0.038385
		CHANNELS 3 Zrotation Yrotation Xrotation
		JOINT upperback
		{
			OFFSET 0.004488 0.137956 0.026820
			CHANNELS 3 Zrotation Yrotation Xrotation
			JOINT chest
			{
				OFFSET -0.002265 0.056032 0.002855
				CHANNELS 3 Zrotation Yrotation Xrotation
				JOINT lowerneck
				{
					OFFSET -0.013390 0.211636 -0.033468
					CHANNELS 3 Zrotation Yrotation Xrotation
					JOINT upperneck
					{
						OFFSET 0.010113 0.088937 0.050410
						CHANNELS 3 Zrotation Yrotation Xrotation
						End Site
						{
							OFFSET 0.000000 0.000000 0.000000
						}
					}
				}
				JOINT lclavicle
				{
					OFFSET 0.071702 0.114000 -0.018898
					CHANNELS 3 Zrotation Yrotation Xrotation
					JOINT lshoulder
					{
						OFFSET 0.122921 0.045205 -0.019046
						CHANNELS 3 Zrotation Yrotation Xrotation
						JOINT lelbow
						{
							OFFSET 0.255332 -0.015649 -0.022946
							CHANNELS 3 Zrotation Yrotation Xrotation
							JOINT lwrist
							{
								OFFSET 0.265709 0.012698 -0.007375
								CHANNELS 3 Zrotation Yrotation Xrotation
								End Site
								{
									OFFSET 0.000000 0.000000 0.000000
								}
							}
						}
					}
				}
				JOINT rclavicle
				{
					OFFSET -0.082954 0.112472 -0.023707
					CHANNELS 3 Zrotation Yrotation Xrotation
					JOINT rshoulder
					{
						OFFSET -0.113228 0.046853 -0.008472
						CHANNELS 3 Zrotation Yrotation Xrotation
						JOINT relbow
						{
							OFFSET -0.260127 -0.014369 -0.031269
							CHANNELS 3 Zrotation Yrotation Xrotation
							JOINT rwrist
							{
								OFFSET -0.269108 0.006794 -0.006027
								CHANNELS 3 Zrotation Yrotation Xrotation
								End Site
								{
									OFFSET 0.000000 0.000000 0.000000
								}
							}
						}
					}
				}
			}
		}
	}
}
MOTION
Frames: 9
Frame Time: 0.033333
0.348737 0.151248 0.990369 86.988187 0.166165 90.805468 5.314289 4.390255 5.155634 -4.134015 -1.822318 -6.796066 0.791494 8.201929 -3.209108 0.000000 -0.000000 0.000000 -5.465000 -4.101935 0.873513 2.186060 -1.660013 -0.228219 4.340517 -5.438576 -5.805697 0.000000 -0.000000 0.000000 -5.537607 4.365719 -8.866724 1.995144 -1.474739 14.366260 -0.018282 0.783500 -3.927990 6.213908 2.507273 5.385317 5.451119 -1.608867 -2.507904 -28.418304 -1.866644 -0.868714 -54.522652 -7.384521 16.313320 2.974088 -17.606465 6.794997 -6.355424 -14.433620 10.574419 30.170508 3.593577 6.916860 55.365400 4.350616 14.143245 -10.467010 25.574853 -4.492137 0.190776 12.182436 0.472433 
0.348813 0.151249 0.990304 86.994401 0.174700 90.769345 5.326728 4.395231 5.192859 -4.130457 -1.843472 -6.785579 0.755226 8.188032 -3.228384 0.000000 -0.000000 0.000000 -5.454235 -4.096574 0.930706 2.176853 -1.627336 -0.245500 4.333850 -5.462508 -5.815231 0.000000 -0.000000 0.000000 -5.502336 4.311662 -8.778589 1.953737 -1.447819 14.188887 0.021146 0.817273 -3.803061 6.195306 2.537654 5.162284 5.413781 -1.549726 -2.373080 -28.389204 -1.946272 -0.825781 -54.532393 -7.390024 16.159197 2.915105 -17.612466 6.869368 -6.370867 -14.395289 10.606297 30.047588 3.609737 6.968534 55.496027 4.407156 14.089201 -10.562063 25.559442 -4.462662 0.253889 12.154009 0.382600 
0.348933 0.151200 0.990255 87.014706 0.188847 90.767719 5.344838 4.392343 5.179971 -4.125474 -1.860074 -6.749816 0.730027 8.169833 -3.264576 0.000000 -0.000000 0.000000 -5.440102 -4.102913 0.944280 2.182256 -1.592114 -0.235996 4.339078 -5.479700 -5.821628 0.000000 -0.000000 0.000000 -5.486000 4.252253 -8.754603 1.931479 -1.439539 14.064887 0.057801 0.850064 -3.711819 6.174717 2.596889 4.965326 5.391452 -1.536150 -2.277509 -28.333272 -1.978227 -0.830085 -54.568132 -7.391248 16.047936 2.862688 -17.651123 6.986116 -6.430163 -14.365633 10.702776 29.936707 3.603092 6.994954 55.595621 4.438142 14.051192 -10.611975 25.575019 -4.406256 0.290728 12.115450 0.346181 
0.349115 0.151026 0.990167 87.028292 0.202730 90.789865 5.363007 4.388434 5.171940 -4.129236 -1.863536 -6.764115 0.713045 8.154517 -3.237675 0.000000 -0.000000 0.000000 -5.415305 -4.107761 0.941264 2.168785 -1.561422 -0.260023 4.365581 -5.506210 -5.808594 0.000000 -0.000000 0.000000 -5.457439 4.231312 -8.788012 1.892565 -1.425297 13.940822 0.070198 0.852881 -3.662964 6.178633 2.573089 4.856240 5.411837 -1.516977 -2.145488 -28.218959 -2.062383 -0.745047 -54.765426 -7.410680 16.031866 3.049447 -17.622816 7.066045 -6.524669 -14.332666 10.676376 29.760421 3.666174 7.064512 55.841829 4.425094 14.070173 -10.761819 25.591292 -4.342028 0.325691 12.093967 0.131245 
0.349181 0.151006 0.990190 87.032650 0.200417 90.783489 5.360465 4.384701 5.187765 -4.134253 -1.864647 -6.774726 0.721647 8.149408 -3.246378 0.000000 -0.000000 0.000000 -5.413755 -4.113333 0.940380 2.156108 -1.552955 -0.234871 4.366362 -5.501077 -5.823876 0.000000 -0.000000 0.000000 -5.455445 4.238562 -8.802521 1.888213 -1.429173 13.925148 0.068578 0.846580 -3.651231 6.187700 2.556452 4.825722 5.405033 -1.533174 -2.094946 -28.213092 -2.083708 -0.736466 -54.781718 -7.433324 16.027512 3.068161 -17.585466 7.062149 -6.488435 -14.348487 10.664508 29.735400 3.666930 7.068457 55.885996 4.434131 14.067963 -10.785359 25.598341 -4.338171 0.290310 12.090908 0.122205 
0.349310 0.151052 0.990184 87.043020 0.203203 90.767375 5.362712 4.373125 5.217304 -4.135291 -1.863591 -6.789048 0.729826 8.146485 -3.242385 0.000000 -0.000000 0.000000 -5.413596 -4.109994 0.969180 2.155934 -1.552727 -0.236467 4.368489 -5.502184 -5.823978 0.000000 -0.000000 0.000000 -5.446748 4.233019 -8.813069 1.881214 -1.431330 13.892447 0.069308 0.839234 -3.635163 6.208701 2.535956 4.813855 5.412255 -1.543341 -2.024193 -28.229047 -2.080524 -0.755723 -54.791633 -7.484317 16.014674 3.122021 -17.498219 7.016304 -6.567244 -14.389844 10.651313 29.716483 3.669575 7.047319 55.901124 4.426895 14.112057 -10.743273 25.526268 -4.268727 0.554816 12.004057 0.033064 
0.349539 0.150997 0.990275 87.036990 0.181783 90.757796 5.330925 4.360204 5.274712 -4.129923 -1.874761 -6.835801 0.736306 8.155295 -3.240367 0.000000 -0.000000 0.000000 -5.446146 -4.101250 1.017159 2.169624 -1.549599 -0.281427 4.378007 -5.488373 -5.821589 0.000000 -0.000000 0.000000 -5.483976 4.231838 -8.887906 1.888616 -1.431263 13.934946 0.071459 0.804217 -3.612540 6.276907 2.563288 4.696064 5.386550 -1.597720 -1.903457 -28.204981 -2.062234 -0.791109 -54.800729 -7.510501 15.983096 3.100585 -17.515789 6.935766 -6.489876 -14.391648 10.621944 29.766122 3.675063 7.037996 55.859973 4.483863 14.135720 -10.815478 25.551683 -4.299836 0.267831 12.114627 0.232416 
0.349691 0.151041 0.990266 87.041327 0.169380 90.738663 5.315903 4.365278 5.314936 -4.129158 -1.888470 -6.860777 0.735072 8.158327 -3.244132 0.000000 -0.000000 0.000000 -5.463392 -4.092435 1.050615 2.172228 -1.562137 -0.287210 4.364116 -5.502963 -5.821115 0.000000 -0.000000 0.000000 -5.477783 4.207452 -8.885284 1.877338 -1.427145 13.925844 0.065314 0.803660 -3.608959 6.290385 2.556812 4.674354 5.383599 -1.598539 -1.884209 -28.247996 -2.055947 -0.770588 -54.756011 -7.493953 15.954080 3.138146 -17.582950 6.933061 -6.496034 -14.400541 10.618423 29.777851 3.683153 7.053018 55.852464 4.499171 14.124391 -10.817909 25.564631 -4.298928 0.269320 12.116355 0.217153 
0.349971 0.151118 0.990269 87.072300 0.154425 90.739610 5.290845 4.359465 5.347012 -4.123610 -1.916510 -6.888331 0.719315 8.149786 -3.259154 0.000000 -0.000000 0.000000 -5.489068 -4.080930 1.099049 2.178885 -1.587695 -0.337128 4.360985 -5.524515 -5.820712 0.000000 -0.000000 0.000000 -5.483347 4.174024 -8.941906 1.875500 -1.444565 13.954436 0.057692 0.791296 -3.618821 6.307052 2.556855 4.649288 5.365841 -1.613294 -1.918639 -28.242811 -2.053519 -0.769965 -54.731027 -7.486113 15.938454 3.091344 -17.588775 6.977619 -6.519533 -14.450299 10.676613 29.784830 3.694862 7.068876 55.868709 4.543457 14.094064 -10.847915 25.503054 -4.338946 0.179038 12.253844 0.275879 
